<?xml version="1.0" encoding="UTF-8" standalone="no"?>
<!DOCTYPE svg PUBLIC "-//W3C//DTD SVG 1.1//EN" "http://www.w3.org/Graphics/SVG/1.1/DTD/svg11.dtd">
<svg width="100%" height="100%" viewBox="0 0 512 512" version="1.1" xmlns="http://www.w3.org/2000/svg" xmlns:xlink="http://www.w3.org/1999/xlink" xml:space="preserve" xmlns:serif="http://www.serif.com/" style="fill-rule:evenodd;clip-rule:evenodd;stroke-linejoin:round;stroke-miterlimit:2;">
    <g transform="matrix(0.777819,0,0,0.777819,49.342957,52.194666)">
        <g transform="matrix(0.123291,0,0,0.619753,453.884691,87.528699)">
            <path d="M392.261,120.198L392.261,442.907C392.261,451.813 355.917,459.043 311.152,459.043L148.933,459.043C104.168,459.043 67.824,451.813 67.824,442.907L67.824,120.198C67.824,111.292 104.168,104.062 148.933,104.062L311.152,104.062C355.917,104.062 392.261,111.292 392.261,120.198Z" style="fill:rgb(26,27,30);"/>
        </g>
        <g transform="matrix(0.369872,0,0,0.112682,357.160522,140.295594)">
            <path d="M392.261,192.807L392.261,370.298C392.261,419.277 380.146,459.043 365.225,459.043L94.861,459.043C79.939,459.043 67.824,419.277 67.824,370.298L67.824,192.807C67.824,143.828 79.939,104.062 94.861,104.062L365.225,104.062C380.146,104.062 392.261,143.828 392.261,192.807Z" style="fill:rgb(26,27,30);"/>
        </g>
        <g transform="matrix(0.369872,0,0,0.112682,357.160522,320.295594)">
            <path d="M392.261,192.807L392.261,370.298C392.261,419.277 380.146,459.043 365.225,459.043L94.861,459.043C79.939,459.043 67.824,419.277 67.824,370.298L67.824,192.807C67.824,143.828 79.939,104.062 94.861,104.062L365.225,104.062C380.146,104.062 392.261,143.828 392.261,192.807Z" style="fill:rgb(26,27,30);"/>
        </g>
    </g>
    <g transform="matrix(0.777819,0,0,0.777819,72.608879,42.538821)">
        <g transform="matrix(0.169525,0,0,0.85216,295.510324,34.507873)">
            <path d="M392.261,120.198L392.261,442.907C392.261,451.813 355.917,459.043 311.152,459.043L148.933,459.043C104.168,459.043 67.824,451.813 67.824,442.907L67.824,120.198C67.824,111.292 104.168,104.062 148.933,104.062L311.152,104.062C355.917,104.062 392.261,111.292 392.261,120.198Z" style="fill:rgb(26,27,30);"/>
        </g>
        <g transform="matrix(0.508574,0,0,0.154938,162.514593,107.062353)">
            <path d="M392.261,192.807L392.261,370.298C392.261,419.277 380.146,459.043 365.225,459.043L94.861,459.043C79.939,459.043 67.824,419.277 67.824,370.298L67.824,192.807C67.824,143.828 79.939,104.062 94.861,104.062L365.225,104.062C380.146,104.062 392.261,143.828 392.261,192.807Z" style="fill:rgb(26,27,30);"/>
        </g>
        <g transform="matrix(0.508574,0,0,0.154938,162.514593,354.562353)">
            <path d="M392.261,192.807L392.261,370.298C392.261,419.277 380.146,459.043 365.225,459.043L94.861,459.043C79.939,459.043 67.824,419.277 67.824,370.298L67.824,192.807C67.824,143.828 79.939,104.062 94.861,104.062L365.225,104.062C380.146,104.062 392.261,143.828 392.261,192.807Z" style="fill:rgb(26,27,30);"/>
        </g>
    </g>
    <g transform="matrix(0.777819,0,0,0.777819,54.725414,50.409798)">
        <g transform="matrix(0.215758,0,0,1.084567,147.57536,-41.046246)">
            <path d="M392.261,120.198L392.261,442.907C392.261,451.813 355.917,459.043 311.152,459.043L148.933,459.043C104.168,459.043 67.824,451.813 67.824,442.907L67.824,120.198C67.824,111.292 104.168,104.062 148.933,104.062L311.152,104.062C355.917,104.062 392.261,111.292 392.261,120.198Z" style="fill:rgb(26,27,30);"/>
        </g>
        <g transform="matrix(0.647275,0,0,0.197194,-21.691934,51.29582)">
            <path d="M392.261,192.807L392.261,370.298C392.261,419.277 380.146,459.043 365.225,459.043L94.861,459.043C79.939,459.043 67.824,419.277 67.824,370.298L67.824,192.807C67.824,143.828 79.939,104.062 94.861,104.062L365.225,104.062C380.146,104.062 392.261,143.828 392.261,192.807Z" style="fill:rgb(26,27,30);"/>
        </g>
        <g transform="matrix(0.647275,0,0,0.197194,-21.691934,366.29582)">
            <path d="M392.261,192.807L392.261,370.298C392.261,419.277 380.146,459.043 365.225,459.043L94.861,459.043C79.939,459.043 67.824,419.277 67.824,370.298L67.824,192.807C67.824,143.828 79.939,104.062 94.861,104.062L365.225,104.062C380.146,104.062 392.261,143.828 392.261,192.807Z" style="fill:rgb(26,27,30);"/>
        </g>
    </g>
    <g transform="matrix(1.406702,0,0,2.006086,-165.865347,-203.110575)">
        <rect x="369.695" y="201.718" width="38.886" height="54.282" style="fill:rgb(124,186,156);"/>
    </g>
</svg>
